# Blender 4.0.1
# www.blender.org
mtllib Frame.mtl
o Cube.002_Material.001_0.002
v -0.990639 0.287564 0.426233
v -0.990639 0.677670 0.426233
v 1.612482 0.677670 0.426233
v 1.612482 0.287564 0.426233
v 1.612482 0.287564 0.426233
v 1.612482 0.677670 0.426233
v 1.612482 0.677670 1.008686
v 1.612482 0.287565 1.008686
v 1.612482 0.287565 1.008686
v 1.612482 0.677670 1.008686
v -0.990639 0.677670 1.008686
v -0.990639 0.287565 1.008686
v -0.990639 0.288508 0.426233
v 1.612482 0.287564 0.426233
v 1.612482 0.287565 1.008686
v -0.990639 0.288508 1.008686
v 1.612482 0.677670 0.426233
v -0.990639 0.677670 0.426233
v -0.990639 0.677670 1.008686
v 1.612482 0.677670 1.008686
v -1.709123 0.287565 1.008686
v -1.661950 0.496235 1.008686
v -1.661950 0.496235 0.426233
v -1.709123 0.287564 0.426233
v -1.709123 0.288508 1.008686
v -1.709123 0.288508 0.426233
v -0.990639 0.702840 0.426233
v -0.990639 0.287564 0.426233
v -1.709123 0.287564 0.426233
v -1.661950 0.496235 0.426233
v -0.990639 0.287565 1.008686
v -0.990639 0.702840 1.008686
v -1.661950 0.496235 1.008686
v -1.709123 0.287565 1.008686
v -0.990645 0.677670 0.462637
v -0.990645 0.677670 -0.483849
v -1.442785 0.496235 -0.483849
v -1.442785 0.496235 0.462637
v -0.990645 0.287564 -0.483849
v 1.612476 0.287564 -0.483849
v 1.612476 0.287564 -0.483849
v 1.612476 0.677670 -0.483849
v 1.612476 0.677670 0.462637
v 1.612476 0.287564 0.462637
v 1.612476 0.287564 0.462637
v 1.612476 0.677670 0.462637
v -0.990645 0.677670 0.462637
v -0.990645 0.287564 0.462637
v 1.612476 0.677670 -0.483849
v -0.990645 0.677670 -0.483849
v -0.990645 0.677670 0.462637
v 1.612476 0.677670 0.462637
v -1.489958 0.287564 0.462637
v -1.442785 0.496235 0.462637
v -1.442785 0.496235 -0.483849
v -1.489958 0.287564 -0.483849
v -0.990645 0.677670 -0.483849
v -0.990645 0.287564 -0.483849
v -1.489958 0.287564 -0.483849
v -1.442785 0.496235 -0.483849
v -0.990645 0.287564 0.462637
v -0.990645 0.677670 0.462637
v -1.442785 0.496235 0.462637
v -1.489958 0.287564 0.462637
v -0.990645 0.287564 -1.029898
v -0.990645 0.677669 -1.029898
v 1.612476 0.677669 -1.029898
v 1.612476 0.287564 -1.029898
v 1.612476 0.287564 -1.029898
v 1.612476 0.677669 -1.029898
v 1.612476 0.677670 -0.447446
v 1.612476 0.287564 -0.447446
v 1.612476 0.287564 -0.447446
v 1.612476 0.677670 -0.447446
v -0.990645 0.677670 -0.447446
v -0.990645 0.287564 -0.447446
v -0.990645 0.287564 -1.029898
v 1.612476 0.287564 -1.029898
v 1.612476 0.287564 -0.447446
v -0.990645 0.287564 -0.447446
v 1.612476 0.677669 -1.029898
v -0.990645 0.677669 -1.029898
v -0.990645 0.677670 -0.447446
v 1.612476 0.677670 -0.447446
v -1.709128 0.287564 -0.447446
v -1.661955 0.496235 -0.447446
v -1.661955 0.496234 -1.029898
v -1.709128 0.287564 -1.029898
v -1.709128 0.287564 -0.447446
v -1.709128 0.287564 -1.029898
v -0.990645 0.702839 -1.029898
v -0.990645 0.287564 -1.029898
v -1.709128 0.287564 -1.029898
v -1.661955 0.496234 -1.029898
v -0.990645 0.287564 -0.447446
v -0.990645 0.702839 -0.447446
v -1.661955 0.496235 -0.447446
v -1.709128 0.287564 -0.447446
v -1.528897 0.448225 0.545970
v -1.528897 0.651776 0.545970
v -1.446369 0.651776 0.545970
v -1.305466 0.448225 0.545970
v -1.305466 0.448225 0.545970
v -1.446369 0.651776 0.545970
v -1.446369 0.651776 0.816143
v -1.305466 0.448225 0.816143
v -1.305466 0.448225 0.816143
v -1.446369 0.651776 0.816143
v -1.528897 0.651776 0.816143
v -1.528897 0.448225 0.816143
v -1.528897 0.448225 0.545970
v -1.305466 0.448225 0.545970
v -1.305466 0.448225 0.816143
v -1.528897 0.448225 0.816143
v -1.446369 0.651776 0.545970
v -1.528897 0.651776 0.545970
v -1.528897 0.651776 0.816143
v -1.446369 0.651776 0.816143
v -1.528897 0.448224 -0.837355
v -1.528897 0.651775 -0.837355
v -1.446369 0.651775 -0.837355
v -1.305466 0.448224 -0.837355
v -1.305466 0.448224 -0.837355
v -1.446369 0.651775 -0.837355
v -1.446369 0.651776 -0.567182
v -1.305466 0.448224 -0.567182
v -1.305466 0.448224 -0.567182
v -1.446369 0.651776 -0.567182
v -1.528897 0.651776 -0.567182
v -1.528897 0.448224 -0.567182
v -1.528897 0.448224 -0.837355
v -1.305466 0.448224 -0.837355
v -1.305466 0.448224 -0.567182
v -1.528897 0.448224 -0.567182
v -1.446369 0.651775 -0.837355
v -1.528897 0.651775 -0.837355
v -1.528897 0.651776 -0.567182
v -1.446369 0.651776 -0.567182
v 1.409948 0.446418 0.432638
v 1.409948 0.637598 0.432638
v 1.409948 0.637598 -0.453851
v 1.409948 0.446417 -0.453850
v 1.409948 0.446417 -0.453850
v 1.409948 0.637598 -0.453851
v 1.687726 0.637598 -0.453851
v 1.687726 0.446417 -0.453850
v 1.687726 0.446417 -0.453850
v 1.687726 0.637598 -0.453851
v 1.687726 0.637598 0.432638
v 1.687726 0.446418 0.432638
v 1.687726 0.446418 0.432638
v 1.687726 0.637598 0.432638
v 1.409948 0.637598 0.432638
v 1.409948 0.446418 0.432638
v 1.409948 0.446417 -0.453850
v 1.687726 0.446417 -0.453850
v 1.687726 0.446418 0.432638
v 1.409948 0.446418 0.432638
v 1.687726 0.637598 -0.453851
v 1.409948 0.637598 -0.453851
v 1.409948 0.637598 0.432638
v 1.687726 0.637598 0.432638
v 1.612482 0.702840 0.426233
v -0.990639 0.702840 0.426233
v -0.990639 0.702840 1.008686
v 1.612482 0.702840 1.008686
v -0.990645 0.702839 -0.447446
v 1.612476 0.702839 -0.447446
v 1.612476 0.702839 -1.029898
v -0.990645 0.702839 -1.029898
v -1.528897 0.551722 -0.837355
v -1.528897 0.551722 -0.567182
v -1.528897 0.449946 -0.837355
v -1.528897 0.449947 -0.567182
v -1.528897 0.550000 0.545970
v -1.528897 0.550000 0.816143
v -1.528897 0.446671 0.545970
v -1.528897 0.446672 0.816143
v -1.661955 0.496235 -0.447446
v -1.661955 0.496235 -1.029898
v -1.661950 0.496235 0.426233
v -1.661950 0.496235 1.008686
vn -0.0000 -0.0000 -1.0000
vn 1.0000 -0.0000 -0.0000
vn -0.0000 -0.0000 1.0000
vn -0.0004 -1.0000 -0.0000
vn -0.0000 -1.0000 -0.0000
vn -0.9754 0.2205 -0.0000
vn -0.3724 0.9281 -0.0000
vn -0.0000 1.0000 -0.0000
vn 0.8222 0.5692 -0.0000
vn -1.0000 -0.0000 -0.0000
vn 0.2941 -0.9558 -0.0000
s 0
usemtl Material.001
f 1//1 2//1 3//1
f 1//1 3//1 4//1
f 5//2 6//2 7//2
f 5//2 7//2 8//2
f 9//3 10//3 11//3
f 9//3 11//3 12//3
f 13//4 14//4 15//4
f 13//4 15//4 16//4
f 17//5 20//5 19//5
f 21//6 22//6 23//6
f 21//6 23//6 24//6
f 13//5 16//5 25//5
f 13//5 25//5 26//5
f 27//1 28//1 29//1
f 27//1 29//1 30//1
f 31//3 32//3 33//3
f 31//3 33//3 34//3
f 35//7 36//7 37//7
f 35//7 37//7 38//7
f 41//2 42//2 43//2
f 41//2 43//2 44//2
f 45//3 46//3 47//3
f 45//3 47//3 48//3
f 49//8 50//8 51//8
f 49//8 51//8 52//8
f 53//6 54//6 55//6
f 53//6 55//6 56//6
f 57//1 58//1 59//1
f 57//1 59//1 60//1
f 61//3 62//3 63//3
f 61//3 63//3 64//3
f 65//1 66//1 67//1
f 65//1 67//1 68//1
f 69//2 70//2 71//2
f 69//2 71//2 72//2
f 73//3 74//3 75//3
f 73//3 75//3 76//3
f 77//5 78//5 79//5
f 77//5 79//5 80//5
f 81//5 84//5 83//5
f 85//6 86//6 87//6
f 85//6 87//6 88//6
f 77//5 80//5 89//5
f 77//5 89//5 90//5
f 91//1 92//1 93//1
f 91//1 93//1 94//1
f 95//3 96//3 97//3
f 95//3 97//3 98//3
f 99//1 100//1 101//1
f 99//1 101//1 102//1
f 103//9 104//9 105//9
f 103//9 105//9 106//9
f 107//3 108//3 109//3
f 107//3 109//3 110//3
f 111//5 112//5 113//5
f 111//5 113//5 114//5
f 115//8 116//8 117//8
f 115//8 117//8 118//8
f 119//1 120//1 121//1
f 119//1 121//1 122//1
f 123//9 124//9 125//9
f 123//9 125//9 126//9
f 127//3 128//3 129//3
f 127//3 129//3 130//3
f 131//5 132//5 133//5
f 131//5 133//5 134//5
f 135//8 136//8 137//8
f 135//8 137//8 138//8
f 139//10 140//10 141//10
f 139//10 141//10 142//10
f 143//1 144//1 145//1
f 143//1 145//1 146//1
f 147//2 148//2 149//2
f 147//2 149//2 150//2
f 151//3 152//3 153//3
f 151//3 153//3 154//3
f 155//5 156//5 157//5
f 155//5 157//5 158//5
f 159//8 160//8 161//8
f 159//8 161//8 162//8
f 163//8 164//8 165//8
f 163//8 165//8 166//8
f 169//8 170//8 167//8
f 169//8 167//8 168//8
f 81//10 84//10 168//10 169//10
f 82//3 81//3 169//3 170//3
f 17//10 20//10 166//10 163//10
f 20//1 19//1 165//1 166//1
f 18//3 17//3 163//3 164//3
f 84//1 83//1 167//1 168//1
f 136//2 137//2 172//2 171//2
f 172//10 171//10 173//10 174//10
f 116//2 117//2 176//2 175//2
f 176//10 175//10 177//10 178//10
f 170//11 167//11 179//11 180//11
f 164//11 165//11 182//11 181//11
l 39 40
