# Blender 4.0.1
# www.blender.org
mtllib Tun.mtl
o Cube.002_Material.001_0.003
v -2.906465 0.619700 -0.653281
v -2.906383 0.717926 -0.652883
v -2.906465 0.619700 -0.653281
v -2.909433 0.619305 -0.554993
v -2.909350 0.717531 -0.554596
v -2.906383 0.717926 -0.652883
v -2.909433 0.619305 -0.554993
v -2.909350 0.717531 -0.554596
v -2.909433 0.619305 -0.554993
v -2.906465 0.619700 -0.653281
v -2.906383 0.717926 -0.652883
v -2.909350 0.717531 -0.554596
v -2.906465 0.619700 -0.653281
v -2.906383 0.717926 -0.652883
v -2.906465 0.619700 -0.653281
v -2.909433 0.619305 -0.554993
v -2.909350 0.717531 -0.554596
v -2.906383 0.717926 -0.652883
v -2.909433 0.619305 -0.554993
v -2.909350 0.717531 -0.554596
v -2.909433 0.619305 -0.554993
v -2.906465 0.619700 -0.653281
v -2.906383 0.717926 -0.652883
v -2.909350 0.717531 -0.554596
v -0.559346 0.888563 -0.119263
v -3.015723 0.882757 -0.111213
v -0.552550 0.868575 -0.119409
v -3.008927 0.862769 -0.111360
v -0.544021 0.848946 -0.115655
v -3.000399 0.843140 -0.107606
v -0.534087 0.830432 -0.108145
v -2.990464 0.824626 -0.100096
v -0.523127 0.813743 -0.097166
v -2.979505 0.807937 -0.089117
v -0.511565 0.799521 -0.083141
v -2.967942 0.793715 -0.075092
v -0.499844 0.788312 -0.066609
v -2.956221 0.782507 -0.058560
v -0.488414 0.780548 -0.048206
v -2.944791 0.774742 -0.040157
v -0.477715 0.776527 -0.028638
v -2.934093 0.770721 -0.020588
v -0.468158 0.776402 -0.008657
v -2.924536 0.770597 -0.000608
v -0.460111 0.780180 0.010969
v -2.916488 0.774374 0.019018
v -0.453882 0.787714 0.029485
v -2.910259 0.781908 0.037534
v -0.449711 0.798716 0.046180
v -2.906088 0.792910 0.054229
v -0.447758 0.812762 0.060412
v -2.904135 0.806956 0.068462
v -0.448098 0.829312 0.071635
v -2.904476 0.823506 0.079684
v -0.450719 0.847731 0.079417
v -2.907097 0.841926 0.087466
v -0.455519 0.867312 0.083459
v -2.911896 0.861506 0.091508
v -0.462314 0.887300 0.083606
v -2.918691 0.881494 0.091655
v -0.470843 0.906929 0.079852
v -2.927221 0.901123 0.087901
v -0.480778 0.925443 0.072341
v -2.937155 0.919637 0.080391
v -0.491737 0.942132 0.061363
v -2.948115 0.936326 0.069412
v -0.503300 0.956354 0.047338
v -2.959677 0.950548 0.055387
v -0.515021 0.967562 0.030806
v -2.971399 0.961757 0.038855
v -0.526450 0.975327 0.012402
v -2.982828 0.969521 0.020452
v -0.537149 0.979348 -0.007166
v -2.993526 0.973543 0.000883
v -0.546706 0.979473 -0.027147
v -3.003083 0.973667 -0.019098
v -0.554754 0.975695 -0.046772
v -3.011130 0.969889 -0.038723
v -0.560982 0.968161 -0.065288
v -3.017359 0.962355 -0.057239
v -0.565153 0.957159 -0.081983
v -3.021531 0.951354 -0.073934
v -0.567106 0.943113 -0.096216
v -3.023484 0.937308 -0.088167
v -0.566766 0.926563 -0.107439
v -3.023144 0.920757 -0.099389
v -0.564145 0.908143 -0.115221
v -3.020522 0.902338 -0.107171
vn 0.0033 -0.0062 1.0000
vn 0.0028 0.1890 0.9820
vn 0.0021 0.3769 0.9263
vn 0.0014 0.5502 0.8350
vn 0.0007 0.7024 0.7118
vn -0.0001 0.8277 0.5612
vn -0.0009 0.9212 0.3892
vn -0.0017 0.9793 0.2022
vn -0.0023 1.0000 0.0073
vn -0.0029 0.9822 -0.1879
vn -0.0034 0.9267 -0.3759
vn -0.0038 0.8354 -0.5496
vn -0.0040 0.7120 -0.7021
vn -0.0040 0.5612 -0.8277
vn -0.0039 0.3887 -0.9214
vn -0.0037 0.2013 -0.9795
vn -0.0033 0.0062 -1.0000
vn -0.0028 -0.1890 -0.9820
vn -0.0021 -0.3769 -0.9263
vn -0.0014 -0.5502 -0.8350
vn -0.0007 -0.7024 -0.7117
vn 0.0001 -0.8277 -0.5612
vn 0.0009 -0.9212 -0.3892
vn 0.0017 -0.9793 -0.2022
vn 0.0023 -1.0000 -0.0073
vn 0.0029 -0.9822 0.1878
vn 0.0034 -0.9267 0.3759
vn 0.0038 -0.8354 0.5496
vn 0.0040 -0.7120 0.7021
vn 0.0040 -0.5612 0.8277
vn 0.8624 0.2962 -0.4106
vn 0.0039 -0.3887 0.9214
vn 0.0037 -0.2013 0.9795
vn -0.8624 -0.2962 0.4106
vt 1.000000 0.500000
vt 1.000000 1.000000
vt 0.968750 1.000000
vt 0.968750 0.500000
vt 0.937500 1.000000
vt 0.937500 0.500000
vt 0.906250 1.000000
vt 0.906250 0.500000
vt 0.875000 1.000000
vt 0.875000 0.500000
vt 0.843750 1.000000
vt 0.843750 0.500000
vt 0.812500 1.000000
vt 0.812500 0.500000
vt 0.781250 1.000000
vt 0.781250 0.500000
vt 0.750000 1.000000
vt 0.750000 0.500000
vt 0.718750 1.000000
vt 0.718750 0.500000
vt 0.687500 1.000000
vt 0.687500 0.500000
vt 0.656250 1.000000
vt 0.656250 0.500000
vt 0.625000 1.000000
vt 0.625000 0.500000
vt 0.593750 1.000000
vt 0.593750 0.500000
vt 0.562500 1.000000
vt 0.562500 0.500000
vt 0.531250 1.000000
vt 0.531250 0.500000
vt 0.500000 1.000000
vt 0.500000 0.500000
vt 0.468750 1.000000
vt 0.468750 0.500000
vt 0.437500 1.000000
vt 0.437500 0.500000
vt 0.406250 1.000000
vt 0.406250 0.500000
vt 0.375000 1.000000
vt 0.375000 0.500000
vt 0.343750 1.000000
vt 0.343750 0.500000
vt 0.312500 1.000000
vt 0.312500 0.500000
vt 0.281250 1.000000
vt 0.281250 0.500000
vt 0.250000 1.000000
vt 0.250000 0.500000
vt 0.218750 1.000000
vt 0.218750 0.500000
vt 0.187500 1.000000
vt 0.187500 0.500000
vt 0.156250 1.000000
vt 0.156250 0.500000
vt 0.125000 1.000000
vt 0.125000 0.500000
vt 0.093750 1.000000
vt 0.093750 0.500000
vt 0.062500 1.000000
vt 0.062500 0.500000
vt 0.296822 0.485388
vt 0.250000 0.490000
vt 0.203178 0.485388
vt 0.158156 0.471731
vt 0.116663 0.449553
vt 0.080294 0.419706
vt 0.050447 0.383337
vt 0.028269 0.341844
vt 0.014612 0.296822
vt 0.010000 0.250000
vt 0.014612 0.203178
vt 0.028269 0.158156
vt 0.050447 0.116663
vt 0.080294 0.080294
vt 0.116663 0.050447
vt 0.158156 0.028269
vt 0.203178 0.014612
vt 0.250000 0.010000
vt 0.296822 0.014612
vt 0.341844 0.028269
vt 0.383337 0.050447
vt 0.419706 0.080294
vt 0.449553 0.116663
vt 0.471731 0.158156
vt 0.485388 0.203178
vt 0.490000 0.250000
vt 0.485388 0.296822
vt 0.471731 0.341844
vt 0.449553 0.383337
vt 0.419706 0.419706
vt 0.383337 0.449553
vt 0.341844 0.471731
vt 0.031250 1.000000
vt 0.031250 0.500000
vt 0.000000 1.000000
vt 0.000000 0.500000
vt 0.750000 0.490000
vt 0.796822 0.485388
vt 0.841844 0.471731
vt 0.883337 0.449553
vt 0.919706 0.419706
vt 0.949553 0.383337
vt 0.971731 0.341844
vt 0.985388 0.296822
vt 0.990000 0.250000
vt 0.985388 0.203178
vt 0.971731 0.158156
vt 0.949553 0.116663
vt 0.919706 0.080294
vt 0.883337 0.050447
vt 0.841844 0.028269
vt 0.796822 0.014612
vt 0.750000 0.010000
vt 0.703178 0.014612
vt 0.658156 0.028269
vt 0.616663 0.050447
vt 0.580294 0.080294
vt 0.550447 0.116663
vt 0.528269 0.158156
vt 0.514612 0.203178
vt 0.510000 0.250000
vt 0.514612 0.296822
vt 0.528269 0.341844
vt 0.550447 0.383337
vt 0.580294 0.419706
vt 0.616663 0.449553
vt 0.658156 0.471731
vt 0.703178 0.485388
s 0
usemtl Material.003
f 25/1/1 26/2/1 28/3/1 27/4/1
f 27/4/2 28/3/2 30/5/2 29/6/2
f 29/6/3 30/5/3 32/7/3 31/8/3
f 31/8/4 32/7/4 34/9/4 33/10/4
f 33/10/5 34/9/5 36/11/5 35/12/5
f 35/12/6 36/11/6 38/13/6 37/14/6
f 37/14/7 38/13/7 40/15/7 39/16/7
f 39/16/8 40/15/8 42/17/8 41/18/8
f 41/18/9 42/17/9 44/19/9 43/20/9
f 43/20/10 44/19/10 46/21/10 45/22/10
f 45/22/11 46/21/11 48/23/11 47/24/11
f 47/24/12 48/23/12 50/25/12 49/26/12
f 49/26/13 50/25/13 52/27/13 51/28/13
f 51/28/14 52/27/14 54/29/14 53/30/14
f 53/30/15 54/29/15 56/31/15 55/32/15
f 55/32/16 56/31/16 58/33/16 57/34/16
f 57/34/17 58/33/17 60/35/17 59/36/17
f 59/36/18 60/35/18 62/37/18 61/38/18
f 61/38/19 62/37/19 64/39/19 63/40/19
f 63/40/20 64/39/20 66/41/20 65/42/20
f 65/42/21 66/41/21 68/43/21 67/44/21
f 67/44/22 68/43/22 70/45/22 69/46/22
f 69/46/23 70/45/23 72/47/23 71/48/23
f 71/48/24 72/47/24 74/49/24 73/50/24
f 73/50/25 74/49/25 76/51/25 75/52/25
f 75/52/26 76/51/26 78/53/26 77/54/26
f 77/54/27 78/53/27 80/55/27 79/56/27
f 79/56/28 80/55/28 82/57/28 81/58/28
f 81/58/29 82/57/29 84/59/29 83/60/29
f 83/60/30 84/59/30 86/61/30 85/62/30
f 28/63/31 26/64/31 88/65/31 86/66/31 84/67/31 82/68/31 80/69/31 78/70/31 76/71/31 74/72/31 72/73/31 70/74/31 68/75/31 66/76/31 64/77/31 62/78/31 60/79/31 58/80/31 56/81/31 54/82/31 52/83/31 50/84/31 48/85/31 46/86/31 44/87/31 42/88/31 40/89/31 38/90/31 36/91/31 34/92/31 32/93/31 30/94/31
f 85/62/32 86/61/32 88/95/32 87/96/32
f 87/96/33 88/95/33 26/97/33 25/98/33
f 25/99/34 27/100/34 29/101/34 31/102/34 33/103/34 35/104/34 37/105/34 39/106/34 41/107/34 43/108/34 45/109/34 47/110/34 49/111/34 51/112/34 53/113/34 55/114/34 57/115/34 59/116/34 61/117/34 63/118/34 65/119/34 67/120/34 69/121/34 71/122/34 73/123/34 75/124/34 77/125/34 79/126/34 81/127/34 83/128/34 85/129/34 87/130/34
l 1 13
l 2 14
l 3 15
l 4 16
l 5 17
l 6 18
l 7 19
l 8 20
l 9 21
l 10 22
l 11 23
l 12 24
