# Blender 4.0.1
# www.blender.org
mtllib Turela.mtl
o Cube.002_Material.001_0.001
v -0.571037 0.797243 -0.054385
v -0.570938 0.895469 -0.053923
v -0.572767 0.796782 0.043933
v -0.572669 0.895008 0.044395
v -0.572767 0.796782 0.043933
v -0.570938 0.895469 -0.053923
v -0.140892 0.925573 -0.602012
v -0.084271 1.014548 -0.449953
v 0.310831 1.014118 -0.442717
v 0.386358 0.924999 -0.592355
v 0.386358 0.924999 -0.592355
v 0.310831 1.014118 -0.442717
v 0.590682 1.012915 -0.246382
v 0.759808 0.923393 -0.330353
v 0.759808 0.923393 -0.330353
v 0.590682 1.012915 -0.246382
v 0.591958 1.010477 0.271776
v 0.761509 0.920141 0.361109
v 0.761509 0.920141 0.361109
v 0.591958 1.010477 0.271776
v 0.313049 1.009881 0.457877
v 0.389316 0.919346 0.609454
v 0.389316 0.919346 0.609454
v 0.313049 1.009881 0.457877
v -0.082054 1.010311 0.450641
v -0.137933 0.919919 0.599797
v -0.137933 0.919919 0.599797
v -0.082054 1.010311 0.450641
v -0.480593 1.011892 0.199314
v -0.669768 0.922029 0.264412
v -0.669768 0.922029 0.264412
v -0.480593 1.011892 0.199314
v -0.481609 1.013832 -0.213204
v -0.671123 0.924618 -0.286078
v -0.671123 0.924618 -0.286078
v -0.481609 1.013832 -0.213204
v -0.084271 1.014548 -0.449953
v -0.140892 0.925573 -0.602012
v -0.690911 0.733011 -0.294475
v -0.671123 0.924618 -0.286078
v -0.140892 0.925573 -0.602012
v -0.146931 0.733990 -0.618599
v -0.689521 0.730355 0.270289
v -0.669768 0.922029 0.264412
v -0.671123 0.924618 -0.286078
v -0.690911 0.733011 -0.294475
v -0.143896 0.728190 0.614369
v -0.137933 0.919919 0.599797
v -0.669768 0.922029 0.264412
v -0.689521 0.730355 0.270289
v 0.397024 0.727602 0.624277
v 0.389316 0.919346 0.609454
v -0.137933 0.919919 0.599797
v -0.143896 0.728190 0.614369
v 0.778867 0.728418 0.369493
v 0.761509 0.920141 0.361109
v 0.389316 0.919346 0.609454
v 0.397024 0.727602 0.624277
v 0.777121 0.731755 -0.339897
v 0.759808 0.923393 -0.330353
v 0.761509 0.920141 0.361109
v 0.778867 0.728418 0.369493
v 0.393988 0.733402 -0.608693
v 0.386358 0.924999 -0.592355
v 0.759808 0.923393 -0.330353
v 0.777121 0.731755 -0.339897
v -0.146931 0.733990 -0.618599
v -0.140892 0.925573 -0.602012
v 0.386358 0.924999 -0.592355
v 0.393988 0.733402 -0.608693
v -0.130745 0.651147 -0.575349
v -0.146931 0.733990 -0.618599
v 0.393988 0.733402 -0.608693
v 0.372144 0.650600 -0.566138
v 0.372144 0.650600 -0.566138
v 0.393988 0.733402 -0.608693
v 0.777121 0.731755 -0.339897
v 0.728340 0.649068 -0.316241
v 0.728340 0.649068 -0.316241
v 0.777121 0.731755 -0.339897
v 0.778867 0.728418 0.369493
v 0.729963 0.645965 0.343273
v 0.729963 0.645965 0.343273
v 0.778867 0.728418 0.369493
v 0.397024 0.727602 0.624277
v 0.374966 0.645207 0.580144
v 0.374966 0.645207 0.580144
v 0.397024 0.727602 0.624277
v -0.143896 0.728190 0.614369
v -0.127923 0.645754 0.570934
v -0.127923 0.645754 0.570934
v -0.143896 0.728190 0.614369
v -0.689521 0.730355 0.270289
v -0.635186 0.647766 0.251044
v -0.635186 0.647766 0.251044
v -0.689521 0.730355 0.270289
v -0.690911 0.733011 -0.294475
v -0.636479 0.650236 -0.274012
v -0.636479 0.650236 -0.274012
v -0.690911 0.733011 -0.294475
v -0.146931 0.733990 -0.618599
v -0.130745 0.651147 -0.575349
v 0.310831 1.014118 -0.442717
v -0.084271 1.014548 -0.449953
v -0.481609 1.013832 -0.213204
v -0.480593 1.011892 0.199314
v -0.082054 1.010311 0.450641
v 0.313049 1.009881 0.457877
v 0.591958 1.010477 0.271776
v 0.590682 1.012915 -0.246382
v -0.571037 0.797243 -0.054385
v -0.570938 0.895469 -0.053923
v -0.572767 0.796782 0.043933
v -0.572669 0.895008 0.044395
v -0.572767 0.796782 0.043933
v -0.570938 0.895469 -0.053923
vn 0.0102 0.8614 -0.5078
vn 0.2746 0.8807 -0.3859
vn 0.4690 0.8832 0.0030
vn 0.2614 0.8809 0.3946
vn -0.0085 0.8566 0.5159
vn -0.2648 0.8655 0.4253
vn -0.4276 0.9040 0.0053
vn -0.2505 0.8733 -0.4178
vn -0.5099 0.0902 -0.8555
vn -0.5099 0.0901 -0.8555
vn -0.9947 0.1026 0.0029
vn -0.5314 0.0806 0.8432
vn -0.0182 0.0763 0.9969
vn 0.5528 0.0863 0.8288
vn 0.9959 0.0901 -0.0020
vn 0.5721 0.0923 -0.8149
vn 0.0183 0.0857 -0.9962
vn 0.0158 -0.4603 -0.8876
vn 0.4970 -0.4968 -0.7115
vn 0.8607 -0.5091 -0.0045
vn 0.4779 -0.5107 0.7147
vn 0.4779 -0.5107 0.7146
vn -0.0167 -0.4686 0.8832
vn -0.4690 -0.4811 0.7407
vn -0.8355 -0.5495 -0.0005
vn -0.4481 -0.4810 -0.7536
vn 0.0010 1.0000 0.0047
s 0
usemtl Material.004
f 7//1 8//1 9//1
f 7//1 9//1 10//1
f 11//2 12//2 13//2
f 11//2 13//2 14//2
f 15//3 16//3 17//3
s 1
f 15//3 17//3 18//3
s 0
f 19//4 20//4 21//4
f 19//4 21//4 22//4
f 23//5 24//5 25//5
f 23//5 25//5 26//5
f 27//6 28//6 29//6
f 27//6 29//6 30//6
f 31//7 32//7 33//7
f 31//7 33//7 34//7
f 35//8 36//8 37//8
f 35//8 37//8 38//8
f 39//9 40//9 41//9
f 39//10 41//10 42//10
f 43//11 44//11 45//11
f 43//11 45//11 46//11
f 47//12 48//12 49//12
f 47//12 49//12 50//12
f 51//13 52//13 53//13
f 51//13 53//13 54//13
f 55//14 56//14 57//14
f 55//14 57//14 58//14
f 59//15 60//15 61//15
f 59//15 61//15 62//15
f 63//16 64//16 65//16
f 63//16 65//16 66//16
f 67//17 68//17 69//17
f 67//17 69//17 70//17
f 71//18 72//18 73//18
f 71//18 73//18 74//18
s 1
f 75//19 76//19 77//19
s 0
f 75//19 77//19 78//19
f 79//20 80//20 81//20
f 79//20 81//20 82//20
f 83//21 84//21 85//21
f 83//22 85//22 86//22
f 87//23 88//23 89//23
f 87//23 89//23 90//23
f 91//24 92//24 93//24
f 91//24 93//24 94//24
f 95//25 96//25 97//25
f 95//25 97//25 98//25
f 99//26 100//26 101//26
f 99//26 101//26 102//26
f 106//27 104//27 105//27
f 104//27 106//27 107//27
f 104//27 107//27 103//27
f 103//27 107//27 108//27
f 103//27 108//27 110//27
f 110//27 108//27 109//27
l 1 111
l 3 113
l 5 115
l 2 112
l 4 114
l 6 116
