# Blender 4.0.1
# www.blender.org
mtllib Tureta.mtl
o Cube.002_Material.001_0.001
v -1.048238 1.349996 -0.141980
v -1.048238 1.504606 -0.141980
v -1.064793 1.349996 0.011911
v -1.064793 1.504606 0.011910
v -1.064793 1.349996 0.011911
v -1.048238 1.504606 -0.141980
v -0.296904 1.548612 -0.940889
v -0.229630 1.689873 -0.695206
v 0.388756 1.689873 -0.628228
v 0.528309 1.548612 -0.851510
v 0.528309 1.548612 -0.851510
v 0.388756 1.689873 -0.628228
v 0.799835 1.689873 -0.281024
v 1.076879 1.548612 -0.388179
v 1.076879 1.548612 -0.388179
v 0.799835 1.689873 -0.281024
v 0.728878 1.689873 0.531484
v 0.982189 1.548612 0.696083
v 0.982189 1.548612 0.696083
v 0.728878 1.689873 0.531484
v 0.265428 1.689873 0.783968
v 0.363732 1.548613 1.033012
v 0.363732 1.548613 1.033012
v 0.265428 1.689873 0.783968
v -0.352959 1.689873 0.716990
v -0.461481 1.548613 0.943633
v -0.461481 1.548613 0.943633
v -0.352959 1.689873 0.716990
v -0.942364 1.689873 0.266862
v -1.248020 1.548612 0.342955
v -1.248020 1.548612 0.342955
v -0.942364 1.689873 0.266862
v -0.885874 1.689873 -0.379996
v -1.172636 1.548612 -0.520253
v -1.172636 1.548612 -0.520253
v -0.885874 1.689873 -0.379996
v -0.229630 1.689873 -0.695206
v -0.296904 1.548612 -0.940889
v -1.202301 1.246930 -0.534763
v -1.172636 1.548612 -0.520253
v -0.296904 1.548612 -0.940889
v -0.303863 1.246929 -0.966305
v -1.279640 1.246930 0.350826
v -1.248020 1.548612 0.342955
v -1.172636 1.548612 -0.520253
v -1.202301 1.246930 -0.534763
v -0.472707 1.246930 0.967079
v -0.461481 1.548613 0.943633
v -1.248020 1.548612 0.342955
v -1.279640 1.246930 0.350826
v 0.373902 1.246930 1.058776
v 0.363732 1.548613 1.033012
v -0.461481 1.548613 0.943633
v -0.472707 1.246930 0.967079
v 1.008395 1.246930 0.713110
v 0.982189 1.548612 0.696083
v 0.363732 1.548613 1.033012
v 0.373902 1.246930 1.058776
v 1.105539 1.246930 -0.399264
v 1.076879 1.548612 -0.388179
v 0.982189 1.548612 0.696083
v 1.008395 1.246930 0.713110
v 0.542746 1.246929 -0.874609
v 0.528309 1.548612 -0.851510
v 1.076879 1.548612 -0.388179
v 1.105539 1.246930 -0.399264
v -0.303863 1.246929 -0.966305
v -0.296904 1.548612 -0.940889
v 0.528309 1.548612 -0.851510
v 0.542746 1.246929 -0.874609
v -0.284503 1.116879 -0.895600
v -0.303863 1.246929 -0.966305
v 0.542746 1.246929 -0.874609
v 0.502584 1.116879 -0.810350
v 0.502584 1.116879 -0.810350
v 0.542746 1.246929 -0.874609
v 1.105539 1.246930 -0.399264
v 1.025809 1.116879 -0.368426
v 1.025809 1.116879 -0.368426
v 1.105539 1.246930 -0.399264
v 1.008395 1.246930 0.713110
v 0.935494 1.116879 0.665741
v 0.935494 1.116879 0.665741
v 1.008395 1.246930 0.713110
v 0.373902 1.246930 1.058776
v 0.345611 1.116879 0.987103
v 0.345611 1.116879 0.987103
v 0.373902 1.246930 1.058776
v -0.472707 1.246930 0.967079
v -0.441476 1.116879 0.901853
v -0.441476 1.116879 0.901853
v -0.472707 1.246930 0.967079
v -1.279640 1.246930 0.350826
v -1.191675 1.116879 0.328928
v -1.191675 1.116879 0.328928
v -1.279640 1.246930 0.350826
v -1.202301 1.246930 -0.534763
v -1.119774 1.116879 -0.494398
v -1.119774 1.116879 -0.494398
v -1.202301 1.246930 -0.534763
v -0.303863 1.246929 -0.966305
v -0.284503 1.116879 -0.895600
v 0.388756 1.689873 -0.628228
v -0.229630 1.689873 -0.695206
v -0.885874 1.689873 -0.379996
v -0.942364 1.689873 0.266862
v -0.352959 1.689873 0.716990
v 0.265428 1.689873 0.783968
v 0.728878 1.689873 0.531484
v 0.799835 1.689873 -0.281024
v -1.048238 1.349996 -0.141980
v -1.048238 1.504606 -0.141980
v -1.064793 1.349996 0.011911
v -1.064793 1.504606 0.011910
v -1.064793 1.349996 0.011911
v -1.048238 1.504606 -0.141980
vn 0.0551 0.8590 -0.5090
vn 0.3075 0.8792 -0.3640
vn 0.4663 0.8837 0.0407
vn 0.2246 0.8830 0.4122
vn -0.0551 0.8590 0.5090
vn -0.3022 0.8672 0.3958
vn -0.4269 0.9035 -0.0373
vn -0.2126 0.8711 -0.4427
vn -0.4314 0.0856 -0.8981
vn -0.9911 0.1016 -0.0865
vn -0.6048 0.0841 0.7919
vn -0.1073 0.0810 0.9909
vn 0.4764 0.0907 0.8745
vn 0.9921 0.0911 0.0866
vn 0.6427 0.0890 -0.7609
vn 0.1073 0.0810 -0.9909
vn 0.0954 -0.4645 -0.8804
vn 0.5590 -0.4996 -0.6618
vn 0.8580 -0.5082 0.0749
vn 0.4124 -0.5069 0.7570
vn -0.0954 -0.4645 0.8804
vn -0.5331 -0.4781 0.6980
vn -0.8318 -0.5504 -0.0726
vn -0.3786 -0.4850 -0.7883
vn -0.0000 1.0000 -0.0000
s 0
usemtl Material.003
f 7//1 8//1 9//1
f 7//1 9//1 10//1
f 11//2 12//2 13//2
f 11//2 13//2 14//2
f 15//3 16//3 17//3
s 1
f 15//3 17//3 18//3
s 0
f 19//4 20//4 21//4
f 19//4 21//4 22//4
f 23//5 24//5 25//5
f 23//5 25//5 26//5
f 27//6 28//6 29//6
f 27//6 29//6 30//6
f 31//7 32//7 33//7
f 31//7 33//7 34//7
f 35//8 36//8 37//8
f 35//8 37//8 38//8
f 39//9 40//9 41//9
f 39//9 41//9 42//9
f 43//10 44//10 45//10
f 43//10 45//10 46//10
f 47//11 48//11 49//11
f 47//11 49//11 50//11
f 51//12 52//12 53//12
f 51//12 53//12 54//12
f 55//13 56//13 57//13
f 55//13 57//13 58//13
f 59//14 60//14 61//14
f 59//14 61//14 62//14
f 63//15 64//15 65//15
f 63//15 65//15 66//15
f 67//16 68//16 69//16
f 67//16 69//16 70//16
f 71//17 72//17 73//17
f 71//17 73//17 74//17
s 1
f 75//18 76//18 77//18
s 0
f 75//18 77//18 78//18
f 79//19 80//19 81//19
f 79//19 81//19 82//19
f 83//20 84//20 85//20
f 83//20 85//20 86//20
f 87//21 88//21 89//21
f 87//21 89//21 90//21
f 91//22 92//22 93//22
f 91//22 93//22 94//22
f 95//23 96//23 97//23
f 95//23 97//23 98//23
f 99//24 100//24 101//24
f 99//24 101//24 102//24
f 106//25 104//25 105//25
f 104//25 106//25 107//25
f 104//25 107//25 103//25
f 103//25 107//25 108//25
f 103//25 108//25 110//25
f 110//25 108//25 109//25
l 1 111
l 3 113
l 5 115
l 2 112
l 4 114
l 6 116
